HIERARCHY
ROOT Hips
{
	OFFSET 0.000000 100.481300 0.000000
	CHANNELS 6 Xposition Yposition Zposition Xrotation Yrotation Zrotation 
	JOINT Spine
	{
		OFFSET -0.279200 12.230698 -2.892100
		CHANNELS 3 Xrotation Yrotation Zrotation
		JOINT Spine1
		{
			OFFSET -0.232667 10.192268 -1.242267
			CHANNELS 3 Xrotation Yrotation Zrotation
			JOINT Spine1_split
			{
				OFFSET -0.232667 10.192268 -1.242267
				CHANNELS 3 Xrotation Yrotation Zrotation
				JOINT Spine2
				{
					OFFSET -0.232667 10.192268 -1.242267
					CHANNELS 3 Xrotation Yrotation Zrotation
					JOINT Neck
					{
						OFFSET -0.418800 17.814194 8.416900
						CHANNELS 3 Xrotation Yrotation Zrotation
						JOINT Head
						{
							OFFSET 0.000000 7.031097 3.806800
							CHANNELS 3 Xrotation Yrotation Zrotation
							JOINT HeadTop_End
							{
								OFFSET 0.000000 24.646606 12.978600
								CHANNELS 3 Xrotation Yrotation Zrotation
								End Site
								{
									OFFSET 0.000000 0.000000 0.000000
								}
							}
						}
					}
					JOINT LeftShoulder
					{
						OFFSET 8.476499 7.247704 -3.868750
						CHANNELS 3 Xrotation Yrotation Zrotation
						JOINT LeftShoulder_split
						{
							OFFSET 8.476499 7.247704 -3.868750
							CHANNELS 3 Xrotation Yrotation Zrotation
							JOINT LeftArm
							{
								OFFSET 9.308998 -2.777710 0.208600
								CHANNELS 3 Xrotation Yrotation Zrotation
								JOINT LeftForeArm
								{
									OFFSET 29.972298 0.000000 0.000000
									CHANNELS 3 Xrotation Yrotation Zrotation
									JOINT LeftHand
									{
										OFFSET 26.026505 0.000000 0.000000
										CHANNELS 3 Xrotation Yrotation Zrotation
										JOINT LeftHandThumb1
										{
											OFFSET 12.240501 -7.147949 9.207150
											CHANNELS 3 Xrotation Yrotation Zrotation
											JOINT LeftHandThumb2
											{
												OFFSET 4.138618 -2.389435 2.389433
												CHANNELS 3 Xrotation Yrotation Zrotation
												JOINT LeftHandThumb3
												{
													OFFSET 2.726913 -1.574387 1.574386
													CHANNELS 3 Xrotation Yrotation Zrotation
													JOINT LeftHandThumb4
													{
														OFFSET 3.941010 -2.275345 2.275342
														CHANNELS 3 Xrotation Yrotation Zrotation
														End Site
														{
															OFFSET 0.000000 0.000000 0.000000
														}
													}
												}
											}
										}
										JOINT LeftHandIndex1
										{
											OFFSET 24.424698 -1.985611 5.953459
											CHANNELS 3 Xrotation Yrotation Zrotation
											JOINT LeftHandIndex2
											{
												OFFSET 6.426697 0.000000 0.000000
												CHANNELS 3 Xrotation Yrotation Zrotation
												JOINT LeftHandIndex3
												{
													OFFSET 5.337898 0.000000 0.000000
													CHANNELS 3 Xrotation Yrotation Zrotation
													JOINT LeftHandIndex4
													{
														OFFSET 4.409401 0.000000 0.000000
														CHANNELS 3 Xrotation Yrotation Zrotation
														End Site
														{
															OFFSET 0.000000 0.000000 0.000000
														}
													}
												}
											}
										}
										JOINT LeftHandMiddle1
										{
											OFFSET 23.810104 0.000000 0.000000
											CHANNELS 3 Xrotation Yrotation Zrotation
											JOINT LeftHandMiddle2
											{
												OFFSET 7.176498 0.000000 0.000000
												CHANNELS 3 Xrotation Yrotation Zrotation
												JOINT LeftHandMiddle3
												{
													OFFSET 6.774902 0.000000 0.000000
													CHANNELS 3 Xrotation Yrotation Zrotation
													JOINT LeftHandMiddle4
													{
														OFFSET 5.403328 0.000000 0.000000
														CHANNELS 3 Xrotation Yrotation Zrotation
														End Site
														{
															OFFSET 0.000000 0.000000 0.000000
														}
													}
												}
											}
										}
										JOINT LeftHandRing1
										{
											OFFSET 22.908401 -0.839279 -6.020567
											CHANNELS 3 Xrotation Yrotation Zrotation
											JOINT LeftHandRing2
											{
												OFFSET 6.337502 0.000000 0.000000
												CHANNELS 3 Xrotation Yrotation Zrotation
												JOINT LeftHandRing3
												{
													OFFSET 5.779297 0.000000 0.000000
													CHANNELS 3 Xrotation Yrotation Zrotation
													JOINT LeftHandRing4
													{
														OFFSET 4.965698 0.000000 0.000000
														CHANNELS 3 Xrotation Yrotation Zrotation
														End Site
														{
															OFFSET 0.000000 0.000000 0.000000
														}
													}
												}
											}
										}
										JOINT LeftHandPinky1
										{
											OFFSET 20.037003 -1.530319 -10.950146
											CHANNELS 3 Xrotation Yrotation Zrotation
											JOINT LeftHandPinky2
											{
												OFFSET 5.254700 0.000000 0.000000
												CHANNELS 3 Xrotation Yrotation Zrotation
												JOINT LeftHandPinky3
												{
													OFFSET 4.810204 0.000000 0.000000
													CHANNELS 3 Xrotation Yrotation Zrotation
													JOINT LeftHandPinky4
													{
														OFFSET 3.647202 0.000000 0.000000
														CHANNELS 3 Xrotation Yrotation Zrotation
														End Site
														{
															OFFSET 0.000000 0.000000 0.000000
														}
													}
												}
											}
										}
									}
								}
							}
						}
					}
					JOINT RightShoulder
					{
						OFFSET -7.570500 7.247704 -3.868750
						CHANNELS 3 Xrotation Yrotation Zrotation
						JOINT RightShoulder_split
						{
							OFFSET -7.570500 7.247704 -3.868750
							CHANNELS 3 Xrotation Yrotation Zrotation
							JOINT RightArm
							{
								OFFSET -9.308998 -2.777710 0.208500
								CHANNELS 3 Xrotation Yrotation Zrotation
								JOINT RightForeArm
								{
									OFFSET -29.972300 0.000000 0.000000
									CHANNELS 3 Xrotation Yrotation Zrotation
									JOINT RightHand
									{
										OFFSET -26.026505 0.000000 0.000000
										CHANNELS 3 Xrotation Yrotation Zrotation
										JOINT RightHandThumb1
										{
											OFFSET -12.240601 -7.148026 9.207092
											CHANNELS 3 Xrotation Yrotation Zrotation
											JOINT RightHandThumb2
											{
												OFFSET -4.138618 -2.389435 2.389433
												CHANNELS 3 Xrotation Yrotation Zrotation
												JOINT RightHandThumb3
												{
													OFFSET -2.726974 -1.574417 1.574421
													CHANNELS 3 Xrotation Yrotation Zrotation
													JOINT RightHandThumb4
													{
														OFFSET -3.941010 -2.275345 2.275343
														CHANNELS 3 Xrotation Yrotation Zrotation
														End Site
														{
															OFFSET 0.000000 0.000000 0.000000
														}
													}
												}
											}
										}
										JOINT RightHandIndex1
										{
											OFFSET -24.424698 -1.985657 5.953444
											CHANNELS 3 Xrotation Yrotation Zrotation
											JOINT RightHandIndex2
											{
												OFFSET -6.426697 0.000000 0.000000
												CHANNELS 3 Xrotation Yrotation Zrotation
												JOINT RightHandIndex3
												{
													OFFSET -5.337898 0.000000 0.000000
													CHANNELS 3 Xrotation Yrotation Zrotation
													JOINT RightHandIndex4
													{
														OFFSET -4.409401 0.000000 0.000000
														CHANNELS 3 Xrotation Yrotation Zrotation
														End Site
														{
															OFFSET 0.000000 0.000000 0.000000
														}
													}
												}
											}
										}
										JOINT RightHandMiddle1
										{
											OFFSET -23.810097 0.000000 0.000000
											CHANNELS 3 Xrotation Yrotation Zrotation
											JOINT RightHandMiddle2
											{
												OFFSET -7.176498 0.000000 0.000000
												CHANNELS 3 Xrotation Yrotation Zrotation
												JOINT RightHandMiddle3
												{
													OFFSET -6.774902 0.000000 0.000000
													CHANNELS 3 Xrotation Yrotation Zrotation
													JOINT RightHandMiddle4
													{
														OFFSET -5.403328 0.000000 0.000000
														CHANNELS 3 Xrotation Yrotation Zrotation
														End Site
														{
															OFFSET 0.000000 0.000000 0.000000
														}
													}
												}
											}
										}
										JOINT RightHandRing1
										{
											OFFSET -22.908302 -0.839325 -6.020576
											CHANNELS 3 Xrotation Yrotation Zrotation
											JOINT RightHandRing2
											{
												OFFSET -6.337502 0.000000 0.000000
												CHANNELS 3 Xrotation Yrotation Zrotation
												JOINT RightHandRing3
												{
													OFFSET -5.779297 0.000000 0.000000
													CHANNELS 3 Xrotation Yrotation Zrotation
													JOINT RightHandRing4
													{
														OFFSET -4.965698 0.000000 0.000000
														CHANNELS 3 Xrotation Yrotation Zrotation
														End Site
														{
															OFFSET 0.000000 0.000000 0.000000
														}
													}
												}
											}
										}
										JOINT RightHandPinky1
										{
											OFFSET -20.037003 -1.530334 -10.950259
											CHANNELS 3 Xrotation Yrotation Zrotation
											JOINT RightHandPinky2
											{
												OFFSET -5.254700 0.000000 0.000000
												CHANNELS 3 Xrotation Yrotation Zrotation
												JOINT RightHandPinky3
												{
													OFFSET -4.810204 0.000000 0.000000
													CHANNELS 3 Xrotation Yrotation Zrotation
													JOINT RightHandPinky4
													{
														OFFSET -3.647202 0.000000 0.000000
														CHANNELS 3 Xrotation Yrotation Zrotation
														End Site
														{
															OFFSET 0.000000 0.000000 0.000000
														}
													}
												}
											}
										}
									}
								}
							}
						}
					}
				}
			}
		}
	}
	JOINT LeftUpLeg
	{
		OFFSET 15.427100 -6.655098 0.678600
		CHANNELS 3 Xrotation Yrotation Zrotation
		JOINT LeftLeg
		{
			OFFSET 4.081073 -39.591068 13.024000
			CHANNELS 3 Xrotation Yrotation Zrotation
			JOINT LeftFoot
			{
				OFFSET -4.081074 -37.707932 -15.979700
				CHANNELS 3 Xrotation Yrotation Zrotation
				JOINT LeftToeBase
				{
					OFFSET 5.346399 -15.068900 20.645000
					CHANNELS 3 Xrotation Yrotation Zrotation
					JOINT LeftToe_End
					{
						OFFSET 2.754700 0.931300 11.300900
						CHANNELS 3 Xrotation Yrotation Zrotation
						End Site
						{
							OFFSET 0.000000 0.000000 0.000000
						}
					}
				}
			}
		}
	}
	JOINT RightUpLeg
	{
		OFFSET -15.569500 -6.655098 0.678600
		CHANNELS 3 Xrotation Yrotation Zrotation
		JOINT RightLeg
		{
			OFFSET -4.081825 -39.591045 13.023800
			CHANNELS 3 Xrotation Yrotation Zrotation
			JOINT RightFoot
			{
				OFFSET 4.081824 -37.707954 -15.979600
				CHANNELS 3 Xrotation Yrotation Zrotation
				JOINT RightToeBase
				{
					OFFSET -5.346400 -15.068900 20.645000
					CHANNELS 3 Xrotation Yrotation Zrotation
					JOINT RightToe_End
					{
						OFFSET -2.754700 0.931300 11.300900
						CHANNELS 3 Xrotation Yrotation Zrotation
						End Site
						{
							OFFSET 0.000000 0.000000 0.000000
						}
					}
				}
			}
		}
	}
}
MOTION
Frames: 5
Frame Time: 0.016667
0.562754 189.153397 -19.973186 5.211944 -6.926722 0.193893 8.447440 -1.147266 -0.498286 16.887416 -1.177193 -1.114028 0.000000 0.000000 0.000000 16.887429 -1.177189 -1.114028 -26.807227 6.493741 -1.451445 4.682591 -9.389108 9.652373 0.000001 0.000000 -0.000000 -0.612879 -14.977174 27.292794 0.000000 0.000000 0.000000 -67.334757 -8.203790 -15.014245 16.808242 -68.480255 48.052990 33.848891 9.957016 32.839625 -11.360190 -10.015406 28.397703 19.621113 23.755289 -10.341690 -0.000006 0.000005 -0.000002 0.000000 -0.000001 -0.000000 -7.847214 -3.444993 -67.091247 -4.893159 2.726511 -36.316430 -0.000000 0.000001 -0.000000 0.000000 0.000000 0.000000 -10.129420 -3.872120 -67.774260 -1.765728 1.717450 -28.158392 -0.000001 0.000013 -0.000001 -0.000000 -0.000000 -0.000001 -15.176952 7.293291 -70.201736 7.766213 -0.421205 -31.520059 -0.000001 0.000005 0.000001 -0.000000 0.000002 0.000002 -16.483458 5.440106 -74.872704 8.338713 -0.185852 -18.883059 0.000001 0.000001 0.000000 0.000000 0.000000 0.000000 6.218760 17.756040 -13.894180 0.000000 0.000000 0.000000 -82.947928 43.284510 24.548716 -18.192509 53.742483 -21.031618 34.793615 6.403807 -40.032347 15.333561 1.500914 -10.491463 -10.396766 -3.067654 -10.223928 0.000003 -0.000005 0.000001 -0.000000 0.000000 -0.000001 0.920251 3.497189 64.452172 1.730977 9.565828 38.865446 -0.000001 -0.000001 0.000000 -0.000002 -0.000001 -0.000001 -6.652417 -3.924327 64.485715 9.406019 5.988752 38.253632 0.000000 -0.000002 -0.000000 0.000000 0.000000 -0.000002 -5.546316 1.390168 64.784802 0.232700 -1.792514 39.151737 0.000001 0.000001 -0.000001 0.000000 -0.000001 0.000000 -17.806368 -16.572286 61.043299 25.326734 3.860151 27.748236 -0.000002 -0.000013 0.000002 0.000002 0.000001 -0.000000 -85.522834 11.779972 25.961141 94.785117 -4.136792 2.615529 -7.003123 11.027924 -29.015736 17.823177 -1.543950 16.681593 0.000000 0.000002 0.000003 -104.045344 15.405423 -17.176430 103.430026 -0.612599 1.197937 9.927850 -7.978435 36.878889 2.511562 3.761221 3.542700 0.000001 -0.000001 0.000002 
0.894650 189.935638 -19.822775 3.845385 -7.226134 0.192022 9.099048 -0.889188 -0.456812 18.191669 -0.858377 -1.119250 0.000000 0.000000 0.000000 18.191661 -0.858376 -1.119249 -27.539476 7.278517 -1.689585 7.619244 -10.946531 10.643135 -0.000000 -0.000001 0.000001 0.325175 -15.904565 27.503498 0.000000 0.000000 0.000000 -69.510576 -10.660058 -14.371481 10.803133 -66.204252 45.525496 35.794682 7.408743 31.709812 -11.360183 -10.015403 28.397712 19.621115 23.755268 -10.341715 -0.000006 0.000003 -0.000005 -0.000000 -0.000003 -0.000002 -7.847206 -3.444997 -67.091241 -4.893184 2.726539 -36.316430 0.000000 0.000000 0.000001 -0.000000 0.000000 0.000001 -10.129391 -3.872147 -67.774232 -1.765760 1.717299 -28.158387 -0.000001 0.000013 0.000001 0.000000 -0.000000 0.000001 -15.176925 7.293253 -70.201722 7.766215 -0.421204 -31.520059 -0.000001 0.000006 0.000001 0.000000 0.000000 0.000002 -16.483417 5.440014 -74.872698 8.338654 -0.185753 -18.883067 -0.000000 0.000001 -0.000000 -0.000000 -0.000000 -0.000000 6.708639 18.898918 -14.296313 0.000000 0.000000 0.000000 -85.364094 45.042430 22.649396 -20.331836 51.306202 -20.083131 36.853044 8.003293 -39.095084 15.333566 1.500918 -10.491463 -10.396766 -3.067653 -10.223927 0.000003 -0.000005 -0.000000 0.000000 -0.000000 -0.000000 0.920269 3.497218 64.452165 1.731016 9.565887 38.865460 -0.000001 0.000000 0.000002 -0.000001 -0.000001 0.000000 -6.652423 -3.924331 64.485694 9.406010 5.988774 38.253642 -0.000000 -0.000002 -0.000002 0.000001 0.000001 0.000000 -5.546331 1.390178 64.784775 0.232790 -1.792470 39.151761 0.000001 0.000001 -0.000001 0.000000 0.000001 -0.000002 -17.806353 -16.572284 61.043306 25.326896 3.860239 27.748226 -0.000001 -0.000012 0.000002 0.000001 -0.000000 -0.000000 -88.909843 10.392972 26.019793 94.396308 -5.098986 1.254289 -6.685770 10.894336 -28.850876 17.111256 -0.820221 16.118521 0.000002 0.000000 -0.000002 -105.591753 11.144400 -16.178667 100.095985 -0.094737 -0.295190 8.486892 -8.076387 35.704349 4.570570 3.739875 1.887695 0.000000 0.000001 -0.000001 
1.269731 190.739944 -19.874752 2.542138 -7.399782 0.280324 9.692774 -0.640169 -0.452855 19.380870 -0.593885 -1.137936 0.000000 0.000000 0.000000 19.380862 -0.593885 -1.137935 -27.906167 8.033921 -1.876915 10.220149 -12.179003 11.188150 0.000001 -0.000001 0.000001 1.416568 -16.917217 27.896846 0.000000 0.000000 0.000000 -71.463921 -13.211099 -13.429060 5.023484 -63.827244 43.312425 37.747413 4.815409 30.664018 -11.360198 -10.015395 28.397693 19.621107 23.755278 -10.341706 -0.000006 0.000004 -0.000005 0.000000 -0.000001 0.000001 -7.847206 -3.444992 -67.091234 -4.893218 2.726550 -36.316430 -0.000000 0.000001 0.000001 -0.000000 0.000000 0.000000 -10.129375 -3.872163 -67.774246 -1.765773 1.717167 -28.158379 -0.000001 0.000014 -0.000000 -0.000001 -0.000001 -0.000001 -15.176926 7.293221 -70.201743 7.766205 -0.421224 -31.520059 -0.000001 0.000006 0.000000 0.000000 0.000000 0.000002 -16.483374 5.439947 -74.872711 8.338581 -0.185699 -18.883074 0.000000 0.000000 0.000000 -0.000000 0.000001 -0.000000 7.401564 20.145756 -15.002644 0.000000 0.000000 0.000000 -85.334813 46.412218 18.300083 -22.943290 49.160256 -18.542946 37.921641 8.917845 -38.636758 15.333560 1.500914 -10.491464 -10.396767 -3.067652 -10.223928 0.000004 -0.000005 -0.000000 0.000000 -0.000000 0.000000 0.920271 3.497233 64.452179 1.731075 9.565940 38.865429 -0.000001 0.000000 0.000000 -0.000001 0.000001 0.000001 -6.652431 -3.924317 64.485687 9.406009 5.988771 38.253642 0.000001 -0.000001 -0.000000 0.000000 -0.000000 0.000000 -5.546320 1.390187 64.784754 0.232875 -1.792368 39.151751 0.000001 0.000001 -0.000001 0.000001 -0.000001 -0.000003 -17.806365 -16.572279 61.043299 25.327050 3.860338 27.748221 -0.000002 -0.000013 0.000002 0.000000 0.000001 -0.000000 -91.682988 10.048381 25.199367 92.274018 -5.546306 0.621014 -5.620279 10.412415 -28.100633 15.821418 -0.277167 14.833996 0.000001 0.000001 -0.000001 -105.486002 6.609569 -15.411613 95.359795 0.993700 -1.361304 6.187630 -8.179174 33.078282 6.672938 3.651652 0.751860 0.000000 0.000001 0.000000 
1.650961 191.439270 -20.209337 1.362619 -7.497216 0.413693 10.217124 -0.409014 -0.450018 20.431044 -0.404106 -1.150168 0.000000 0.000000 0.000000 20.431032 -0.404107 -1.150168 -27.891901 8.715287 -1.992548 12.324976 -12.999080 11.298011 0.000001 -0.000001 -0.000000 2.554313 -17.796331 28.564094 0.000000 0.000000 0.000000 -72.885078 -15.245558 -11.944092 -0.383322 -61.659772 41.125095 39.226463 2.594660 29.927536 -11.360191 -10.015403 28.397710 19.621113 23.755278 -10.341707 -0.000006 0.000003 -0.000006 0.000000 -0.000001 -0.000003 -7.847222 -3.444991 -67.091220 -4.893237 2.726598 -36.316420 0.000000 0.000000 0.000001 0.000000 -0.000000 -0.000002 -10.129372 -3.872195 -67.774239 -1.765800 1.717028 -28.158368 -0.000000 0.000013 0.000000 0.000000 0.000001 0.000001 -15.176918 7.293183 -70.201736 7.766215 -0.421211 -31.520063 -0.000000 0.000006 0.000001 0.000001 -0.000001 0.000000 -16.483369 5.439858 -74.872711 8.338514 -0.185598 -18.883084 -0.000000 0.000002 0.000000 -0.000001 0.000000 0.000000 8.191199 21.269079 -15.938340 0.000000 0.000000 0.000000 -83.291329 47.315859 12.192950 -25.736520 47.219662 -16.682281 38.042125 9.218874 -38.545216 15.333568 1.500912 -10.491458 -10.396766 -3.067653 -10.223929 0.000003 -0.000005 0.000001 0.000000 -0.000000 -0.000001 0.920279 3.497240 64.452151 1.731126 9.565979 38.865422 -0.000001 0.000001 0.000000 -0.000001 -0.000001 -0.000002 -6.652413 -3.924336 64.485701 9.406017 5.988760 38.253646 -0.000001 -0.000001 0.000000 -0.000000 0.000000 0.000000 -5.546323 1.390177 64.784788 0.232955 -1.792305 39.151751 0.000001 0.000001 -0.000001 0.000000 0.000001 0.000000 -17.806368 -16.572289 61.043299 25.327224 3.860420 27.748221 -0.000001 -0.000015 0.000002 0.000001 0.000000 -0.000000 -93.242853 10.659340 23.670727 88.480641 -5.864155 0.547914 -4.366505 9.733335 -26.475099 13.772671 -0.049339 12.878788 -0.000001 0.000000 -0.000000 -103.877335 2.135465 -14.808229 89.331327 2.586921 -1.917949 3.554585 -8.055566 29.125279 8.520757 3.608307 0.260826 0.000000 -0.000000 0.000001 
2.009519 191.944794 -20.795717 0.335884 -7.577730 0.546401 10.659344 -0.188792 -0.423690 21.316530 -0.290756 -1.141271 0.000000 0.000000 0.000000 21.316522 -0.290757 -1.141270 -27.499849 9.287818 -2.027716 13.878553 -13.401405 11.047126 -0.000003 0.000001 -0.000001 3.604448 -18.354388 29.488017 0.000000 0.000000 0.000000 -73.580767 -16.357436 -9.940293 -5.383958 -59.850106 38.716876 39.945531 1.000966 29.581402 -11.360193 -10.015421 28.397712 19.621107 23.755273 -10.341699 -0.000006 0.000004 -0.000005 0.000000 -0.000002 -0.000003 -7.847211 -3.445003 -67.091234 -4.893263 2.726621 -36.316420 -0.000000 0.000000 -0.000001 -0.000000 0.000000 -0.000002 -10.129365 -3.872231 -67.774232 -1.765828 1.716880 -28.158346 -0.000001 0.000013 0.000001 0.000000 0.000000 -0.000001 -15.176899 7.293138 -70.201716 7.766209 -0.421223 -31.520056 -0.000000 0.000004 -0.000000 0.000001 0.000001 0.000000 -16.483342 5.439771 -74.872704 8.338449 -0.185542 -18.883091 -0.000000 0.000002 0.000001 -0.000000 0.000000 0.000000 8.955282 22.064436 -17.026261 0.000000 0.000000 0.000000 -80.139108 47.684252 5.475433 -28.400654 45.367250 -14.783309 37.424871 9.103737 -38.710917 15.333563 1.500913 -10.491463 -10.396766 -3.067653 -10.223928 0.000003 -0.000005 0.000001 -0.000001 -0.000000 -0.000001 0.920282 3.497263 64.452172 1.731177 9.566038 38.865416 -0.000001 0.000000 0.000000 -0.000000 -0.000002 -0.000001 -6.652410 -3.924333 64.485701 9.406014 5.988771 38.253642 0.000000 -0.000000 -0.000001 -0.000000 0.000001 -0.000002 -5.546314 1.390178 64.784788 0.233051 -1.792252 39.151764 0.000001 0.000000 -0.000002 0.000000 -0.000000 -0.000002 -17.806366 -16.572289 61.043293 25.327386 3.860489 27.748202 -0.000001 -0.000014 0.000002 0.000001 -0.000001 0.000000 -93.540520 11.836387 21.791324 83.382656 -6.319005 0.891955 -2.384400 8.615173 -23.890443 13.718328 0.384937 10.233512 -0.000000 -0.000000 0.000000 -101.070612 -2.069434 -14.302950 82.285516 4.458444 -1.974284 1.237908 -7.534161 24.343556 9.719092 3.798734 0.434058 0.000002 -0.000001 0.000000 
